<svg width="287" height="287" viewBox="0 0 287 287" fill="none" xmlns="http://www.w3.org/2000/svg">
<rect width="287" height="287" fill="white"/>
<path fill-rule="evenodd" clip-rule="evenodd" d="M136.462 214.41C101.062 206.662 53.8947 191.287 61.6456 138.532C69.3965 85.7769 102.622 65.436 143.728 65.436C184.832 65.436 231.533 96.4477 222.366 160.691C213.198 224.935 171.862 222.158 136.462 214.41ZM252.821 150.817C254.282 136.138 252.729 121.613 248.557 107.998L260.461 101.621C262.467 100.547 263.222 98.0503 262.149 96.0444L245.898 65.7031C244.822 63.6972 242.324 62.9423 240.318 64.0167L228.414 70.3932C219.39 59.378 208.16 50.0374 195.132 43.1201L199.037 30.1996C199.697 28.0215 198.465 25.7223 196.286 25.0639L163.34 15.1013C161.16 14.4429 158.863 15.6745 158.203 17.8526L154.298 30.7731C139.617 29.3117 128.921 34.6915 115.305 38.8612L108.928 26.9571C107.854 24.9513 105.357 24.1964 103.351 25.2707L73.01 41.5235C71.0042 42.5978 70.2493 45.0946 71.3236 47.1001L77.7001 59.0045C66.6849 68.0284 53.5177 75.4321 46.6005 88.4616L33.6796 84.5549C31.5019 83.8964 29.2023 85.128 28.5439 87.3058L18.5817 120.253C17.9232 122.431 19.1549 124.73 21.3326 125.389L34.2535 129.296C32.7921 143.975 34.3452 158.5 38.5148 172.115L26.6108 178.492C24.6049 179.566 23.85 182.063 24.9244 184.069L41.1771 214.41C42.2514 216.415 44.7482 217.171 46.7537 216.096L58.6581 209.719C67.682 220.735 78.9124 230.076 91.9419 236.993L88.0351 249.913C87.3766 252.091 88.6083 254.391 90.786 255.049L123.734 265.01C125.909 265.67 128.21 264.438 128.87 262.259L132.775 249.34C147.453 250.801 161.979 249.248 175.595 245.078L181.97 256.983C183.046 258.988 185.543 259.742 187.55 258.669L217.891 242.416C219.894 241.342 220.652 238.845 219.576 236.839L213.198 224.935C224.215 215.911 233.554 204.681 240.474 191.651L253.392 195.558C255.571 196.216 257.872 194.985 258.529 192.807L268.49 159.86C269.15 157.682 267.918 155.382 265.739 154.724L252.821 150.817Z" fill="#5B96F7"/>
<path fill-rule="evenodd" clip-rule="evenodd" d="M189.073 76.744L187.926 76.7052L187.894 77.7246C187.839 79.5588 187.864 81.5209 187.892 83.6602C187.911 85.151 187.931 86.728 187.926 88.4077L187.736 91.7245C187.741 94.8145 187.762 99.1154 187.801 104.627L187.925 120.318C187.082 120.598 186.448 121.326 186.321 122.212C185.626 122.318 185.092 122.908 185.092 123.619C185.092 124.122 185.359 124.565 185.763 124.819L185.272 126.005C185.054 126.532 184.694 126.983 184.231 127.308C182.204 128.734 181.01 131.045 181.038 133.488C181.039 133.553 181.041 133.617 181.043 133.682C181.052 133.916 181.253 134.097 181.492 134.09C181.731 134.082 181.918 133.885 181.909 133.651C181.907 133.593 181.905 133.536 181.905 133.478C181.88 131.312 183.321 129.263 185.12 127.998C185.715 127.578 186.178 127 186.458 126.324L186.604 125.044H187.22C187.22 125.044 187.435 126.196 187.435 127.096C187.435 127.997 187.22 129.781 187.22 129.781H186.51C185.697 129.781 185.035 130.429 185.035 131.225C185.035 132.022 185.697 132.67 186.51 132.67H186.612C187.425 132.67 187.704 132.254 187.704 131.225C187.704 130.687 187.764 130.302 188.643 130.302C189.521 130.302 189.295 131.225 189.295 131.225C189.295 132.022 189.957 132.67 190.77 132.67H190.872C191.685 132.67 192.347 132.022 192.347 131.225C192.347 130.429 190.975 129.755 190.162 129.755C190.162 129.755 189.945 128.134 189.945 127.308C189.945 126.612 190.162 125.189 190.162 125.189H189.295C189.295 125.189 189.476 126.517 189.476 127.328C189.476 128.139 189.295 129.755 189.295 129.755C189.295 129.755 188.817 129.841 188.59 129.846C188.362 129.851 188.087 129.781 188.087 129.781C188.087 129.781 187.897 128.123 187.897 127.328C187.897 126.532 188.087 125.044 188.087 125.044H189.295H190.162H190.778L191.307 126.323C191.573 126.966 192.369 127.531 192.976 127.961L193.053 128.015C194.811 129.264 195.478 131.277 195.478 133.401C195.478 135.195 194.759 136.877 193.455 138.136C192.15 139.395 190.423 140.457 188.59 140.431C187.136 140.41 185.649 139.609 184.487 138.741C183.362 137.9 181.905 135.6 181.662 135.07C181.42 134.539 181.305 135.376 181.376 135.6C181.843 137.081 182.798 138.417 184.065 139.364C185.376 140.344 186.936 140.874 188.577 140.897C190.645 140.926 192.592 140.161 194.063 138.741C195.534 137.321 196.344 135.424 196.344 133.401C196.344 131.006 195.161 128.736 193.179 127.328C192.696 126.985 192.326 126.527 192.11 126.005L191.62 124.819C192.023 124.565 192.291 124.122 192.291 123.619C192.291 122.909 191.756 122.318 191.061 122.212C190.918 121.213 190.13 120.415 189.124 120.234L189.069 120.234L188.404 105.643C188.365 100.089 188.884 88.9876 188.884 88.9876C188.893 84.7186 188.946 80.9759 189.041 77.7596L189.073 76.744ZM190.77 131.821C190.435 131.821 190.162 131.554 190.162 131.225V130.302C190.162 130.302 191.48 130.566 191.48 131.225C191.48 131.831 191.25 131.827 190.953 131.822L190.953 131.822C190.926 131.822 190.899 131.821 190.872 131.821H190.77ZM185.57 131.225C185.627 132.055 187.348 132.417 187.22 131.225V130.302C187.22 130.302 185.514 130.395 185.57 131.225ZM187.205 122.195C187.364 121.535 187.97 121.043 188.691 121.043C189.412 121.043 190.018 121.535 190.177 122.195H187.205ZM190.836 123.044H190.651H186.731H186.546C186.222 123.044 185.958 123.302 185.958 123.619C185.958 123.937 186.222 124.195 186.546 124.195H190.836C191.16 124.195 191.424 123.937 191.424 123.619C191.424 123.302 191.16 123.044 190.836 123.044ZM198.262 126.739H199.019C199.233 126.739 199.406 126.568 199.406 126.356C199.406 126.145 199.233 125.974 199.019 125.974H198.262C198.048 125.974 197.875 126.145 197.875 126.356C197.875 126.568 198.048 126.739 198.262 126.739ZM197.66 129.448L198.389 129.755C198.594 129.841 198.694 130.086 198.611 130.302C198.529 130.517 198.296 130.622 198.09 130.535L197.361 130.229C197.156 130.142 197.056 129.897 197.139 129.682C197.201 129.518 197.352 129.418 197.511 129.418C197.56 129.418 197.611 129.428 197.66 129.448ZM197.01 123.208L197.692 122.66C197.885 122.506 197.933 122.199 197.8 121.976C197.717 121.838 197.585 121.764 197.451 121.764C197.368 121.764 197.283 121.793 197.21 121.852L196.527 122.4C196.335 122.554 196.287 122.86 196.42 123.083C196.553 123.306 196.817 123.362 197.01 123.208ZM178.738 126.739H177.98C177.767 126.739 177.594 126.568 177.594 126.356C177.594 126.145 177.767 125.974 177.98 125.974H178.738C178.951 125.974 179.124 126.145 179.124 126.356C179.124 126.568 178.951 126.739 178.738 126.739ZM179.34 129.448L178.611 129.755C178.405 129.841 178.306 130.086 178.388 130.302C178.47 130.517 178.704 130.622 178.909 130.535L179.638 130.229C179.844 130.142 179.943 129.897 179.861 129.682C179.798 129.518 179.648 129.418 179.489 129.418C179.439 129.418 179.389 129.428 179.34 129.448ZM179.99 123.208L179.307 122.66C179.115 122.506 179.067 122.199 179.2 121.976C179.282 121.838 179.414 121.764 179.549 121.764C179.632 121.764 179.716 121.793 179.79 121.852L180.472 122.4C180.665 122.554 180.713 122.86 180.58 123.083C180.446 123.306 180.182 123.362 179.99 123.208Z" fill="#FFB61D"/>
<path d="M132.542 183.596C136.763 184.707 138.929 187.351 140.758 189.814C142.591 192.276 138.562 191.104 136.339 190.215C134.115 189.327 128.762 186.04 128.762 186.04L111.014 180.672V172.463L116.321 172.153C116.321 172.153 128.318 182.485 132.542 183.596Z" fill="white"/>
<path d="M114.152 123.475C117.948 137.842 119.907 151.588 120.217 164.775C120.217 164.775 123.772 165.22 123.328 168.33C122.884 171.441 113.551 179.884 113.551 179.884L110.318 169.166L109.108 129.67L114.152 123.475Z" fill="white"/>
<path fill-rule="evenodd" clip-rule="evenodd" d="M115.447 130.828L113.268 129.382C113.128 129.29 112.945 129.361 112.895 129.528L112.135 132.052C112.071 132.262 112.26 132.459 112.456 132.388L115.396 131.309C115.597 131.235 115.627 130.947 115.447 130.828ZM115.183 131.245L112.505 132.02L113.302 129.724L115.183 131.245Z" fill="#FFB61D"/>
<path fill-rule="evenodd" clip-rule="evenodd" d="M114.49 149.004L112.311 147.559C112.171 147.466 111.988 147.538 111.938 147.704L111.177 150.229C111.114 150.439 111.303 150.636 111.499 150.564L114.439 149.486C114.64 149.412 114.67 149.124 114.49 149.004ZM114.226 149.422L111.548 150.197L112.345 147.901L114.226 149.422Z" fill="#FFB61D"/>
<path fill-rule="evenodd" clip-rule="evenodd" d="M113.344 159.216L113.506 156.606C113.517 156.439 113.363 156.316 113.194 156.356L110.627 156.959C110.414 157.01 110.338 157.272 110.498 157.406L112.902 159.413C113.066 159.549 113.331 159.432 113.344 159.216ZM112.851 159.196L110.84 157.264L113.228 156.807L112.851 159.196Z" fill="#FFB61D"/>
<path fill-rule="evenodd" clip-rule="evenodd" d="M117.476 157.29L114.865 157.128C114.698 157.118 114.575 157.272 114.615 157.441L115.219 160.007C115.269 160.221 115.531 160.297 115.665 160.137L117.672 157.732C117.809 157.569 117.691 157.304 117.476 157.29ZM117.456 157.784L115.523 159.794L115.066 157.407L117.456 157.784Z" fill="#FFB61D"/>
<path fill-rule="evenodd" clip-rule="evenodd" d="M115.46 170.599L113.118 171.763C112.968 171.838 112.939 172.033 113.058 172.159L114.864 174.08C115.014 174.24 115.28 174.174 115.315 173.969L115.851 170.883C115.888 170.673 115.653 170.502 115.46 170.599ZM115.689 171.036L115.021 173.743L113.431 171.904L115.689 171.036Z" fill="#FFB61D"/>
<path fill-rule="evenodd" clip-rule="evenodd" d="M116.608 163.328L114.266 164.493C114.117 164.567 114.087 164.762 114.206 164.888L116.012 166.809C116.163 166.969 116.428 166.904 116.464 166.698L117 163.613C117.036 163.402 116.802 163.232 116.608 163.328ZM116.838 163.765L116.17 166.472L114.58 164.634L116.838 163.765Z" fill="#FFB61D"/>
<path d="M101.425 132.114L98.8498 139.889C92.9633 157.694 90.0647 166.731 89.9776 167.579C89.9235 168.105 90.2427 168.498 90.7349 168.632C91.0307 168.712 91.3924 168.708 91.8417 168.641C92.5407 168.538 93.4753 168.276 94.6037 167.886C95.476 167.585 96.4186 167.223 97.3734 166.832L97.7751 166.666C97.9056 166.612 98.0325 166.559 98.1554 166.506L98.7934 166.231L98.9756 166.151L99.0815 165.982C99.2696 165.683 99.5376 165.153 99.8019 164.427C100.034 163.789 100.219 163.106 100.341 162.384L100.384 162.112C100.422 161.847 100.785 161.233 101.536 160.186L102.059 159.47C102.488 158.891 103.313 157.787 103.396 157.675L103.882 157.018C104.345 156.386 104.75 155.821 105.146 155.251C107.13 152.394 108.532 149.894 109.359 147.488C110.061 145.447 110.307 143.555 110.029 141.817C109.604 139.163 109.767 136.627 110.388 134.247C110.904 132.269 109.272 130.445 106.919 129.774C104.487 129.081 102.171 129.866 101.425 132.114Z" fill="white"/>
<path d="M105.735 120.618C107.17 122.14 108.373 123.301 109.346 124.1C110.984 125.447 113.333 126.89 116.391 128.43C107.035 130.596 101.322 131.025 99.252 129.715C99.252 129.715 100.114 125.658 101.353 123.92C102.275 122.625 105.735 120.618 105.735 120.618Z" fill="white"/>
<path d="M120.618 101.059C118.674 108.442 113.363 116.15 107.707 114.662C102.051 113.173 98.9211 103.081 100.865 95.6983C102.809 88.3151 108.97 83.5368 114.626 85.0253C120.282 86.5139 122.562 93.6763 120.618 101.059Z" fill="white"/>
<path d="M121.912 103.414C119.712 111.863 113.701 120.684 107.3 118.981C100.9 117.277 97.3574 105.728 99.5573 97.2788C101.757 88.8294 108.73 83.361 115.13 85.0646C121.531 86.7681 124.112 94.9648 121.912 103.414Z" fill="white"/>
<path fill-rule="evenodd" clip-rule="evenodd" d="M111.697 86.0364C116.059 86.2841 119.242 87.717 121.026 90.2419L121.228 90.5339C122.11 91.8075 122.852 92.609 123.177 95.0196L123.208 95.2759C123.393 96.8617 123.448 98.5346 123.352 99.0898C123.301 99.3243 123.2 99.4062 123.073 99.3814C122.785 99.325 122.039 97.9984 120.834 95.4016L119.823 96.585C119.273 97.2206 118.106 97.8197 117.414 98.27C116.723 98.7203 111.697 86.0364 111.697 86.0364Z" fill="#E7EAEE"/>
<path fill-rule="evenodd" clip-rule="evenodd" d="M116.101 110.021C118.53 111.034 120.375 112.349 120.864 111.802C121.353 111.255 119.685 109.589 118.389 107.326C117.032 105.075 115.743 102.241 115.502 101.088L114.885 98.1727C113.08 100.45 111.39 108.091 116.101 110.021Z" fill="white"/>
<path d="M144.338 249.163L144.206 257.268H139.596L138.215 247.968L144.338 249.163Z" fill="white"/>
<path d="M93.846 206.061C93.846 206.061 123.76 205.401 133.164 204.044C143.603 202.539 149.312 198.98 151.582 199.401C152.646 199.598 158.925 200.711 172.027 202.104C177.568 202.693 191.952 202.784 191.952 202.784L197.535 190.902C197.535 190.902 158.249 183.014 145.828 186.428C141.921 187.502 133.461 189.051 123.402 188.485C114.703 187.996 91.046 183.401 91.046 183.401C91.046 183.401 81.4942 186.83 83.2232 195.262C84.9522 203.694 93.846 206.061 93.846 206.061Z" fill="white"/>
<path fill-rule="evenodd" clip-rule="evenodd" d="M194.334 195.986L196.173 190.661C196.173 190.661 156.953 183.345 144.532 186.759C140.625 187.833 137.095 189.603 127.036 189.037C123.185 188.821 116.601 187.919 107.284 186.334C102.57 185.531 101.813 185.828 105.518 188.251C114.108 193.868 133.216 192.544 150.552 190.013C182.774 185.308 194.334 195.986 194.334 195.986Z" fill="#E7EAEE"/>
<path d="M139.133 251.003C137.182 253.16 134.595 256.711 135.926 260.266L159.036 267.376C159.036 267.376 159.924 264.708 158.592 262.489C157.256 260.266 144.648 251.494 144.648 251.494L139.133 251.003Z" fill="white"/>
<path fill-rule="evenodd" clip-rule="evenodd" d="M149.8 255.819C149.953 255.777 150.11 255.868 150.152 256.021C150.193 256.174 150.103 256.331 149.95 256.373C149.197 256.577 148.701 257.052 148.527 257.655C148.301 258.433 148.277 259.229 148.533 260.504C148.564 260.659 148.463 260.811 148.308 260.842C148.152 260.873 148.001 260.772 147.97 260.617C147.696 259.254 147.724 258.364 147.975 257.495C148.206 256.698 148.856 256.075 149.8 255.819Z" fill="#E7EAEE"/>
<path fill-rule="evenodd" clip-rule="evenodd" d="M137.074 260.648L159.809 267.338C159.809 267.338 162.696 266.731 159.711 266.306C156.643 265.871 138.684 257.647 136.708 259.145C136.427 259.358 136.9 260.184 137.074 260.648Z" fill="#E7EAEE"/>
<path d="M80.4262 204.365C80.4262 204.365 90.6849 207.603 98.9458 208.817C107.207 210.031 123.685 210.722 123.685 210.722C123.685 210.722 128.829 213.518 129.161 214.813C129.29 215.318 130.07 221.984 132.225 230.499C133.239 234.504 138.657 252.618 138.657 252.618L145.828 249.444C145.828 249.444 145.54 216.151 140.963 205.108C136.385 194.066 89.3314 183.341 89.3314 183.341C89.3314 183.341 79.345 181.535 76.6263 189.702C73.9077 197.868 80.4262 204.365 80.4262 204.365Z" fill="white"/>
<path fill-rule="evenodd" clip-rule="evenodd" d="M139.805 251.47L146.976 248.296C146.784 226.1 145.162 211.322 142.11 203.96C142.11 203.96 145.229 243.15 139.805 251.47Z" fill="#E7EAEE"/>
<path d="M202.337 196.423C204.122 198.719 207.17 201.883 210.902 201.189L221.917 179.665C221.917 179.665 219.083 178.412 216.666 179.338C214.244 180.267 203.597 191.378 203.597 191.378L202.337 196.423Z" fill="white"/>
<path fill-rule="evenodd" clip-rule="evenodd" d="M154.495 259.641C154.609 259.531 154.791 259.535 154.901 259.649C155.01 259.764 155.006 259.946 154.892 260.055C154.225 260.694 154.101 261.765 154.484 262.411C154.565 262.548 154.519 262.724 154.383 262.804C154.247 262.885 154.071 262.84 153.99 262.704C153.474 261.832 153.632 260.468 154.495 259.641Z" fill="#E7EAEE"/>
<path fill-rule="evenodd" clip-rule="evenodd" d="M152.15 257.748C152.266 257.64 152.448 257.645 152.556 257.761C152.665 257.877 152.659 258.058 152.543 258.167L152.388 258.316C151.181 259.504 150.835 260.542 151.898 261.656C152.007 261.771 152.003 261.952 151.888 262.062C151.774 262.171 151.592 262.167 151.483 262.052C150.697 261.229 150.536 260.34 150.884 259.45C151.124 258.836 151.541 258.321 152.15 257.748Z" fill="#E7EAEE"/>
<path fill-rule="evenodd" clip-rule="evenodd" d="M141.104 257.372C141.763 258.632 145.261 258.115 144.652 254.632C144.364 252.984 139.28 253.885 141.104 257.372Z" fill="#E7EAEE"/>
<path fill-rule="evenodd" clip-rule="evenodd" d="M208.719 201.589C213.341 196.307 215.997 184.428 219.804 180.341C221.147 178.898 222.89 178.574 221.014 181.99C217.582 188.24 210.986 201.589 210.986 201.589C210.637 201.764 210.205 201.589 209.815 201.589H208.719Z" fill="#E7EAEE"/>
<path d="M132.542 183.596C136.763 184.707 138.929 187.351 140.758 189.814C142.591 192.276 138.562 191.104 136.339 190.215C134.115 189.327 129.862 185.954 129.862 185.954L132.542 183.596Z" fill="white"/>
<path d="M94.0955 173.598C94.0955 173.598 117.855 183.805 121.204 183.818C124.548 183.832 132.756 187.818 133.2 190.928C133.74 194.713 119.424 189.151 119.424 189.151C119.424 189.151 87.4294 189.151 82.0989 183.818C76.7649 178.486 80.3195 167.377 80.3195 167.377L94.0955 173.598Z" fill="white"/>
<path d="M88.3172 126.051C88.3172 126.051 94.0954 129.605 94.9832 141.159C95.871 152.712 92.316 166.488 92.316 166.488C92.316 166.488 94.5393 168.266 94.9832 170.043C95.4271 171.821 94.0763 174.167 94.0763 174.167C94.0763 174.167 80.7641 180.708 79.8752 181.152C78.9866 181.597 75.4316 180.263 75.4316 176.708C75.4316 173.154 76.7649 170.043 76.7649 170.043C77.4028 146.591 73.6542 123.828 88.3172 126.051Z" fill="white"/>
<path fill-rule="evenodd" clip-rule="evenodd" d="M111.855 101.466C113.222 99.6356 116.11 99.0397 116.881 101.929C116.881 101.929 117.474 103.672 116.28 104.75C112.623 108.05 110.488 103.296 111.855 101.466Z" fill="white"/>
<path fill-rule="evenodd" clip-rule="evenodd" d="M119.487 103.451C120.786 101.712 123.53 101.146 124.263 103.891C124.263 103.891 124.825 105.548 123.691 106.571C120.217 109.706 118.189 105.19 119.487 103.451Z" fill="white"/>
<path d="M108.855 125.707C108.855 125.707 108.855 147.068 109.169 159.004C109.483 170.941 106.747 182.702 101.519 191.899C96.2922 201.097 97.0037 214.254 93.1505 215.232C62.6731 222.968 70.8787 128.301 82.1554 122.252C93.4321 116.203 97.1571 114.921 97.1571 114.921" fill="white"/>
<path fill-rule="evenodd" clip-rule="evenodd" d="M93.2249 131.701L90.5984 135.622C90.3806 135.947 90.5451 136.39 90.9224 136.495L94.4271 137.464C94.8345 137.576 95.2198 137.225 95.1451 136.809L94.2668 131.919C94.1755 131.41 93.5122 131.272 93.2249 131.701ZM93.7957 132.304L94.5801 136.911L91.5324 135.622L93.7957 132.304Z" fill="#FFB61D"/>
<path fill-rule="evenodd" clip-rule="evenodd" d="M84.7741 127.87L81.6789 132.839C81.4812 133.156 81.6348 133.575 81.9908 133.689L87.3953 135.421C87.8454 135.566 88.2672 135.135 88.1132 134.688L85.804 127.987C85.6466 127.53 85.0296 127.46 84.7741 127.87ZM85.5082 128.476L87.0894 134.688L82.4036 132.839L85.5082 128.476Z" fill="#FFB61D"/>
<path fill-rule="evenodd" clip-rule="evenodd" d="M82.867 165.46L84.9724 173.372C85.1018 173.858 85.7497 173.954 86.0149 173.527L89.1453 168.48C89.3189 168.2 89.222 167.832 88.9331 167.673L83.6972 164.808C83.2546 164.566 82.7372 164.972 82.867 165.46ZM83.4217 165.695L88.2749 168.177L85.5271 173.224L83.4217 165.695Z" fill="#FFB61D"/>
<path fill-rule="evenodd" clip-rule="evenodd" d="M78.6505 194.513L79.7985 199.937C79.9038 200.435 80.5565 200.56 80.8381 200.136L83.9395 195.47C84.1683 195.125 83.9692 194.659 83.5622 194.587L79.3128 193.829C78.9119 193.758 78.5662 194.115 78.6505 194.513ZM79.6521 194.428L83.3348 195.733L80.1571 199.362L79.6521 194.428Z" fill="#FFB61D"/>
<path fill-rule="evenodd" clip-rule="evenodd" d="M88.6007 193.365L89.7487 198.789C89.854 199.287 90.5067 199.412 90.7883 198.988L93.8897 194.322C94.1185 193.978 93.9194 193.512 93.5124 193.439L89.263 192.682C88.8621 192.61 88.5164 192.967 88.6007 193.365ZM89.1319 193.837L93.4194 193.719L89.8912 198.252L89.1319 193.837Z" fill="#FFB61D"/>
<path fill-rule="evenodd" clip-rule="evenodd" d="M83.2432 182.268L84.3912 187.692C84.4966 188.189 85.1493 188.314 85.4308 187.891L88.5323 183.224C88.7611 182.88 88.562 182.414 88.155 182.342L83.9055 181.584C83.5047 181.513 83.1589 181.87 83.2432 182.268ZM83.8048 182.149L87.6716 183.289L84.5701 187.19L83.8048 182.149Z" fill="#FFB61D"/>
<path fill-rule="evenodd" clip-rule="evenodd" d="M210.31 199.819C210.022 200.382 209.549 200.618 208.918 200.653C206.671 200.778 204.89 199.786 203.3 198.342C202.698 197.794 202.163 197.172 201.56 196.626C201.135 196.242 200.68 195.992 200.017 196.229C199.509 196.411 198.914 196.343 198.359 196.399C197.107 196.527 195.859 196.694 194.605 196.785C193.805 196.843 193.786 197.525 193.598 197.995C193.174 199.06 192.857 200.168 192.519 201.265C192.388 201.692 192.18 201.86 191.701 201.854C189.311 201.825 186.92 201.827 184.529 201.847C183.441 201.856 182.351 201.986 181.264 201.961C179.219 201.915 177.172 201.849 175.133 201.693C173.161 201.541 171.199 201.257 169.231 201.047C167.849 200.9 166.458 200.822 165.082 200.635C163.481 200.417 161.893 200.101 160.296 199.855C159.497 199.733 158.684 199.696 157.884 199.578C156.512 199.377 155.14 199.167 153.777 198.913C152.512 198.677 151.322 198.921 150.132 199.314C147.814 200.08 145.49 200.827 143.165 201.571C142.751 201.703 142.629 201.812 142.815 202.314C143.5 204.157 144.142 206.02 144.699 207.905C145.093 209.235 145.365 210.606 145.618 211.972C145.927 213.646 146.186 215.33 146.416 217.017C146.592 218.306 146.704 219.604 146.82 220.9C146.967 222.548 147.106 224.196 147.217 225.846C147.328 227.49 147.42 229.135 147.483 230.781C147.589 233.575 147.668 236.371 147.752 239.167C147.803 240.859 147.835 242.552 147.89 244.245C147.906 244.736 148.064 245.24 147.989 245.712C147.933 246.068 147.68 246.566 147.39 246.677C146.643 246.965 146.427 247.521 146.434 248.286C146.442 249.264 146.565 250.242 146.539 251.218C146.523 251.839 146.761 252.273 147.213 252.603C149.266 254.101 151.341 255.571 153.393 257.071C154.368 257.783 155.329 258.515 156.262 259.279C157.262 260.097 158.243 260.941 159.196 261.813C160.146 262.682 160.651 263.744 160.812 265.069C160.936 266.096 160.804 267.05 160.633 268.028C160.544 268.537 160.253 268.745 159.724 268.572C157.5 267.847 155.281 267.108 153.047 266.416C149.357 265.274 145.657 264.165 141.96 263.043C140.643 262.643 139.325 262.244 138.006 261.849C137.198 261.607 137.028 260.882 136.877 260.226C136.451 258.361 137.002 256.663 137.986 255.099C138.588 254.142 139.289 253.247 139.948 252.325C140.485 251.572 140.347 250.801 140.081 249.986C139.214 247.334 138.362 244.677 137.543 242.01C136.734 239.377 135.933 236.741 135.2 234.086C134.426 231.281 133.723 228.455 133.015 225.631C132.632 224.104 132.271 222.569 131.961 221.025C131.729 219.87 131.598 218.696 131.415 217.531C131.198 216.14 131.067 214.725 130.709 213.37C130.554 212.787 129.989 212.254 129.495 211.832C128.421 210.912 127.187 210.226 125.847 209.758C125.515 209.642 125.156 209.562 124.807 209.549C123.144 209.486 121.479 209.47 119.816 209.403C118.191 209.338 116.567 209.247 114.945 209.138C113.272 209.025 111.601 208.891 109.931 208.741C108.143 208.58 106.349 208.452 104.575 208.196C102.694 207.924 100.83 207.53 98.9628 207.164C98.3556 207.046 97.9121 207.414 97.818 208.27C97.6121 210.142 96.9762 211.881 96.2208 213.584C95.6761 214.812 94.6483 215.426 93.3803 215.636C92.4753 215.785 91.5481 215.928 90.6376 215.894C88.0465 215.796 85.7356 214.941 83.6801 213.297C81.073 211.213 79.5476 208.428 78.2489 205.459C77.6669 204.128 76.9177 202.858 76.4609 201.489C75.9647 200.001 75.7137 198.431 75.3682 196.894C75.0994 195.698 74.8251 194.503 74.5989 193.298C74.4201 192.346 74.3075 191.381 74.1716 190.42C73.9911 189.145 73.8131 187.868 73.6414 186.591C73.5847 186.169 73.5286 185.744 73.5108 185.319C73.4552 183.988 73.4279 182.656 73.3715 181.325C73.2923 179.459 73.1445 177.594 73.1198 175.727C73.0776 172.534 73.082 169.339 73.1203 166.146C73.1371 164.744 73.2557 163.341 73.3817 161.942C73.5249 160.353 73.7421 158.771 73.9004 157.183C74.0134 156.05 74.0487 154.908 74.1787 153.777C74.3693 152.117 74.5785 150.458 74.8439 148.809C75.1596 146.847 75.5206 144.892 75.9023 142.942C76.6245 139.252 77.4647 135.585 78.8403 132.079C79.7167 129.846 80.6313 127.567 82.4202 125.881C83.1946 125.151 84.2706 124.73 85.2327 124.212C87.8736 122.791 90.5283 121.395 93.17 119.975C93.2935 119.908 93.3995 119.715 93.4198 119.568C93.4898 119.059 93.4587 118.529 93.5837 118.037C93.6652 117.716 93.8901 117.365 94.1559 117.171C95.0471 116.521 95.9808 115.928 96.9102 115.332C97.0765 115.226 97.312 115.132 97.4948 115.162C98.4746 115.32 98.9661 114.717 99.302 113.975C99.7568 112.97 100.172 111.943 100.525 110.898C101.109 109.168 101.698 107.434 102.141 105.665C102.293 105.055 102.058 104.327 101.921 103.67C101.64 102.332 101.408 100.97 100.956 99.6882C100.668 98.8685 100.084 98.125 99.5256 97.4333C98.0827 95.645 97.3248 93.6419 97.5674 91.3469C97.6728 90.3505 98.1002 89.4218 98.8456 88.6978C99.7228 87.8458 100.622 87.0166 101.502 86.1673C102.143 85.5482 102.097 85.0748 101.262 84.4696C100.093 83.6226 98.9723 82.7074 97.854 81.793C96.8989 81.012 96.488 79.8962 96.235 78.7524C95.8909 77.1963 95.8496 75.6265 96.4842 74.1077C97.4993 71.6786 98.962 69.6739 101.64 68.9181C104 68.2519 106.354 68.2971 108.472 69.6348C110.396 70.8504 111.618 72.6609 112.156 74.8955C112.787 77.5179 112.069 79.8778 110.743 82.1225C110.632 82.3105 110.621 82.5573 110.563 82.7768C110.761 82.8141 110.956 82.8758 111.155 82.8848C113.704 83.0009 116.237 83.2839 118.52 84.4989C121.517 86.0936 123.402 88.6211 124.233 91.9107C124.357 92.4032 124.356 92.9325 124.372 93.4461C124.428 95.1974 124.433 96.9512 124.536 98.6994C124.558 99.0643 124.837 99.5123 125.136 99.746C126.568 100.868 127.056 103.616 125.723 105.242C125.59 105.405 125.477 105.584 125.346 105.749C124.834 106.393 124.091 106.706 123.352 106.574C122.723 106.462 122.669 106.674 122.461 107.139C122.018 108.13 121.486 109.09 120.913 110.014C120.145 111.254 119.361 112.492 118.473 113.645C117.936 114.341 117.212 114.902 116.532 115.477C115.708 116.175 114.837 116.816 113.998 117.497C113.58 117.836 113.121 118.011 112.586 117.934C112.031 117.854 111.719 118.166 111.557 118.615C111.244 119.482 110.96 120.362 110.713 121.25C110.661 121.438 110.771 121.711 110.884 121.897C111.873 123.525 112.856 125.158 113.89 126.759C114.729 128.057 115.682 129.283 116.494 130.597C116.996 131.41 117.329 132.328 117.736 133.2C118.445 134.72 119.169 136.234 119.847 137.768C119.987 138.084 120.025 138.489 119.976 138.833C119.905 139.335 119.41 139.495 118.874 139.171C118.251 138.795 117.664 138.355 117.08 137.917C116.719 137.646 116.394 137.327 116.051 137.032C116.011 136.998 115.958 136.979 115.911 136.953C115.903 137.013 115.882 137.075 115.891 137.133C115.987 137.808 116.064 138.486 116.193 139.155C116.326 139.846 116.529 140.523 116.669 141.212C116.948 142.582 117.217 143.954 117.467 145.329C117.747 146.876 118.017 148.425 118.261 149.978C118.386 150.776 118.428 151.587 118.536 152.389C118.699 153.601 118.904 154.807 119.057 156.02C119.14 156.683 119.159 157.354 119.195 158.022C119.245 158.932 119.279 159.844 119.331 160.754C119.46 163.001 119.59 165.247 119.732 167.492C119.767 168.049 120.094 168.477 120.595 168.636C122.021 169.089 123.018 170.754 122.778 172.144C122.722 172.467 122.651 172.801 122.508 173.092C122.167 173.791 122.612 174.188 123.055 174.551C123.773 175.142 124.522 175.696 125.272 176.246C127.053 177.551 128.846 178.84 130.627 180.145C132.241 181.328 134.021 182.15 135.932 182.733C137.465 183.201 138.77 184.087 139.996 185.11C140.598 185.612 141.12 186.355 142.074 186.172C143.424 185.912 144.77 185.631 146.117 185.353C146.522 185.269 146.921 185.147 147.329 185.077C148.75 184.832 149.589 183.827 150.425 182.787C151.047 182.013 151.741 181.297 152.388 180.543C153.662 179.06 154.922 177.565 156.195 176.081C156.828 175.343 157.479 174.621 158.118 173.889C159.919 171.825 161.71 169.752 163.522 167.699C164.472 166.622 165.462 165.58 166.428 164.519C166.688 164.233 166.967 163.954 167.173 163.631C167.486 163.14 167.805 162.989 168.416 163.187C169.753 163.62 169.729 163.537 168.794 164.563C167.121 166.399 165.502 168.286 163.854 170.145C163.048 171.055 162.216 171.94 161.416 172.855C160.014 174.46 158.633 176.084 157.233 177.692C156.24 178.833 155.234 179.964 154.229 181.095C153.451 181.97 152.662 182.835 151.886 183.712C151.819 183.788 151.765 184.001 151.789 184.016C151.979 184.134 152.192 184.31 152.392 184.302C154.016 184.239 155.639 184.115 157.263 184.059C158.479 184.018 159.699 184.017 160.915 184.059C162.473 184.113 164.034 184.18 165.585 184.329C167.314 184.495 169.033 184.761 170.757 184.98C172.524 185.204 174.297 185.388 176.058 185.654C177.818 185.919 179.563 186.277 181.319 186.569C182.774 186.811 184.239 186.991 185.691 187.244C187.543 187.566 189.386 187.941 191.236 188.281C192.534 188.519 193.838 188.727 195.136 188.966C196.388 189.196 197.634 189.463 198.887 189.685C199.677 189.825 200.474 189.967 201.272 190C201.607 190.014 202.033 189.832 202.281 189.596C204.18 187.789 206.02 185.922 207.927 184.125C210.061 182.114 212.293 180.215 214.7 178.527C215.801 177.755 217.034 177.89 218.233 177.994C218.933 178.054 219.609 178.391 220.294 178.609C220.856 178.787 220.906 179.134 220.656 179.625C219.52 181.853 218.405 184.092 217.269 186.32C216.288 188.246 215.288 190.162 214.263 192.116C212.924 194.706 211.619 197.264 210.31 199.819ZM105.236 183.386C105.833 181.66 106.357 179.905 106.827 178.14C107.133 176.994 107.307 175.81 107.503 174.637C107.705 173.431 107.874 172.22 108.037 171.008C108.227 169.601 108.521 168.193 108.544 166.782C108.59 163.948 108.473 161.112 108.442 158.277C108.423 156.544 108.413 154.81 108.447 153.078C108.473 151.715 107.68 150.7 107.102 149.582C106.718 148.838 106.312 148.087 106.066 147.293C105.615 145.836 105.249 144.351 104.9 142.865C104.661 141.849 104.485 140.816 104.328 139.784C104.146 138.589 103.753 137.467 103.243 136.383C103.2 136.292 102.842 136.226 102.804 136.277C102.598 136.552 102.445 136.867 102.279 137.171C101.984 137.712 101.535 138.227 101.432 138.803C101.227 139.955 100.697 140.943 100.154 141.93C99.8166 142.545 99.2482 142.561 98.8533 141.997C98.4288 141.39 97.9704 140.778 97.6995 140.1C97.0627 138.504 96.4925 136.88 95.9622 135.245C95.2654 133.097 94.6082 130.935 93.9826 128.766C93.656 127.633 93.3305 126.482 93.1933 125.317C93.0589 124.175 93.1653 123.005 93.1618 121.847C93.1615 121.744 93.1298 121.64 93.1127 121.537C93.0658 121.573 93.0229 121.618 92.9713 121.646C91.7578 122.314 90.5518 122.996 89.3267 123.641C88.1116 124.281 86.8907 124.914 85.6474 125.496C84.2851 126.135 82.9178 126.794 82.1287 128.132C81.275 129.58 80.2773 130.959 79.763 132.591C79.2328 134.273 78.6331 135.936 78.1716 137.637C77.6996 139.377 77.3783 141.156 76.9528 142.909C76.6811 144.029 76.2334 145.115 76.0551 146.246C75.7831 147.972 75.615 149.72 75.5175 151.465C75.4339 152.963 75.4403 154.464 75.2381 155.956C75.0812 157.115 74.9746 158.28 74.8332 159.44C74.618 161.208 74.2312 162.971 74.2036 164.74C74.1424 168.658 74.3037 172.578 74.2854 176.497C74.2759 178.551 74.5822 180.559 74.824 182.583C75.0926 184.83 75.2516 187.091 75.508 189.34C75.6822 190.868 75.8564 192.406 76.1824 193.906C76.7132 196.349 77.2834 198.789 77.9921 201.185C78.8763 204.174 80.1746 206.99 82.0026 209.544C83.145 211.14 84.5394 212.447 86.2609 213.387C88.5947 214.661 91.0976 214.551 93.6052 214.162C94.0165 214.098 94.5486 213.782 94.7247 213.431C95.2183 212.449 95.6495 211.414 95.9306 210.353C96.3298 208.846 96.5063 207.281 96.8981 205.771C97.544 203.282 98.3567 200.835 98.9654 198.338C99.4667 196.281 100.422 194.425 101.252 192.512C101.863 191.105 102.586 189.746 103.325 188.299C103.967 186.663 104.662 185.046 105.236 183.386ZM127.265 208.794C128.473 209.532 129.657 210.315 130.806 211.141C131.523 211.657 132.039 212.407 132.196 213.274C132.56 215.282 132.801 217.311 133.154 219.321C133.401 220.732 133.756 222.124 134.05 223.526C134.289 224.668 134.51 225.814 134.736 226.959C134.959 228.083 135.176 229.209 135.402 230.333C135.574 231.19 135.752 232.046 135.933 232.901C136.226 234.283 136.459 235.682 136.838 237.041C137.211 238.379 137.772 239.664 138.181 240.994C138.863 243.206 139.708 245.348 140.688 247.446C140.92 247.943 141.31 247.843 141.542 247.752C143.007 247.178 144.453 246.552 145.889 245.907C146.342 245.704 146.583 245.31 146.562 244.771C146.505 243.308 146.466 241.844 146.426 240.38C146.378 238.629 146.337 236.877 146.292 235.126C146.248 233.411 146.239 231.695 146.149 229.983C146.062 228.31 145.898 226.641 145.76 224.971C145.587 222.891 145.427 220.809 145.223 218.732C145.082 217.297 144.952 215.854 144.681 214.442C144.211 211.995 143.635 209.57 143.105 207.135C142.487 204.297 141.295 201.825 138.937 199.968C137.141 198.553 135.257 197.291 133.22 196.282C130.966 195.165 128.688 194.078 126.349 193.161C123.675 192.112 121.077 190.787 118.133 190.546C116.719 190.43 115.316 190.182 113.904 190.032C112.771 189.911 111.629 189.877 110.496 189.753C108.704 189.557 106.919 189.296 105.125 189.12C104.873 189.095 104.494 189.332 104.34 189.559C103.986 190.082 103.719 190.667 103.442 191.24C102.577 193.027 101.565 194.763 100.907 196.625C100.038 199.084 99.4483 201.642 98.7435 204.159C98.3442 205.585 98.3356 205.649 99.579 205.91C101.018 206.211 102.479 206.411 103.937 206.612C104.89 206.743 105.856 206.779 106.813 206.889C108.626 207.098 110.434 207.347 112.248 207.543C113.403 207.667 114.564 207.742 115.723 207.811C117.456 207.914 119.19 208.01 120.925 208.073C121.963 208.111 123.005 208.08 124.178 208.08C125.267 208.06 126.331 208.223 127.265 208.794ZM179.319 200.512C180.437 200.564 181.555 200.619 182.673 200.642C185.266 200.697 187.859 200.741 190.452 200.773C190.969 200.779 191.435 200.565 191.575 200.032C192.326 197.164 193.804 194.504 193.994 191.47C194.042 190.7 193.708 190.157 192.922 190.019C192.103 189.876 191.294 189.675 190.476 189.519C189.448 189.323 188.416 189.151 187.387 188.962C186.463 188.792 185.539 188.616 184.617 188.437C183.942 188.307 183.269 188.163 182.593 188.035C181.299 187.791 180.005 187.551 178.71 187.314C177.824 187.152 176.939 186.985 176.051 186.843C175.362 186.732 174.666 186.662 173.975 186.562C172.516 186.349 171.057 186.128 169.599 185.909C168.765 185.785 167.934 185.648 167.099 185.535C165.986 185.385 164.869 185.131 163.755 185.137C160.959 185.153 158.162 185.276 155.367 185.385C154.031 185.437 152.691 185.512 151.363 185.661C150.62 185.745 149.904 185.981 149.365 186.607C148.487 187.628 147.543 188.592 146.656 189.605C146.095 190.245 145.571 190.918 145.058 191.597C144.381 192.496 143.554 193.042 142.373 192.95C140.437 192.801 138.499 192.691 136.564 192.542C135.845 192.487 135.13 192.38 134.416 192.28C133.205 192.111 131.998 191.914 130.785 191.755C129.625 191.603 128.462 191.477 127.299 191.358C126.97 191.324 126.635 191.343 126.304 191.361C126.238 191.365 126.178 191.478 126.115 191.54C126.183 191.571 126.252 191.6 126.318 191.634C126.9 191.938 127.467 192.276 128.067 192.541C129.824 193.318 131.637 193.981 133.351 194.843C135.839 196.095 138.162 197.623 140.273 199.46C140.928 200.03 141.556 200.453 142.629 200.31C144.331 200.084 145.922 199.664 147.449 198.921C149.504 197.921 151.595 197.1 153.958 197.59C155.326 197.874 156.701 198.122 158.066 198.415C158.931 198.601 159.775 198.906 160.647 199.036C161.728 199.196 162.828 199.224 163.92 199.319C165.905 199.492 167.889 199.676 169.874 199.848C171.222 199.965 172.57 200.071 173.985 200.248C175.763 200.336 177.541 200.429 179.319 200.512ZM110.159 162.158C110.179 162.688 110.157 163.219 110.166 163.75C110.208 166.232 110.247 168.713 110.302 171.195C110.318 171.915 110.287 172.657 110.452 173.348C110.786 174.746 111.224 176.12 111.65 177.494C111.833 178.083 112.087 178.643 112.752 178.876C113.331 179.079 113.892 179.334 114.472 179.533C115.332 179.828 115.596 179.717 116.157 178.929C116.343 178.669 116.557 178.428 116.765 178.185C118.11 176.617 119.495 175.082 120.79 173.475C121.745 172.288 121.58 170.379 119.979 169.766C119.807 169.7 119.637 169.621 119.458 169.584C118.512 169.388 118.556 169.39 118.525 168.497C118.412 165.304 118.787 162.103 118.285 158.914C118.085 157.641 118.168 156.324 117.983 155.047C117.697 153.061 117.301 151.089 116.937 149.114C116.593 147.245 116.248 145.377 115.871 143.515C115.589 142.126 115.251 140.748 114.948 139.363C114.717 138.306 114.536 137.237 114.257 136.194C114.181 135.912 113.831 135.703 113.607 135.461C113.345 135.714 112.886 135.945 112.855 136.224C112.694 137.639 112.476 139.082 112.6 140.487C112.743 142.1 112.985 143.699 112.677 145.301C112.326 147.126 111.742 148.879 110.753 150.476C110.205 151.361 109.796 152.279 109.889 153.374C109.981 154.458 110.011 155.549 110.027 156.637C110.049 158.185 110.032 159.734 110.032 161.416C110.076 161.663 110.15 161.909 110.159 162.158ZM103.195 107.319C103.083 107.492 102.928 107.651 102.867 107.84C102.236 109.771 101.66 111.72 100.986 113.634C100.579 114.788 99.942 115.817 98.888 116.542C98.1223 117.069 97.4081 117.67 96.6588 118.221C96.2893 118.493 96.3673 118.729 96.5978 119.059C97.2873 120.047 98.0161 121.019 98.5916 122.072C99.3859 123.526 100.066 125.043 100.773 126.543C101.462 128.005 102.181 129.457 102.778 130.957C103.284 132.231 103.557 133.599 104.078 134.866C104.55 136.011 105.055 137.14 105.226 138.366C105.284 138.783 105.419 138.787 105.735 138.786C107.635 138.779 109.469 138.528 111.07 137.397C111.207 137.301 111.323 137.102 111.349 136.935C111.412 136.532 111.401 136.117 111.448 135.711C111.482 135.424 111.669 135.114 111.602 134.864C111.352 133.934 111.02 133.027 110.73 132.108C110.176 130.352 109.448 128.615 109.399 126.763C109.348 124.879 109.518 122.986 109.647 121.1C109.7 120.331 109.85 119.559 110.045 118.812C110.273 117.935 110.219 117.695 109.427 117.267C108.125 116.563 107.002 115.617 106.2 114.396C104.89 112.403 103.883 110.259 103.524 107.781C103.414 107.627 103.305 107.473 103.195 107.319ZM122.088 106.731C122.125 106.66 122.447 106.436 121.968 106.355C121.483 106.274 120.937 106.039 120.604 105.692C119.952 105.012 119.413 104.22 118.864 103.447C118.709 103.229 118.654 103.096 118.436 103.358C118.298 103.525 118.118 103.657 117.98 103.823C116.782 105.27 115.059 105.885 113.445 105.483C111.511 105.001 110.332 102.939 110.306 101.149C110.295 100.436 110.069 99.8385 109.5 99.4282C108.552 98.7454 107.577 98.0995 106.602 97.4543C106.057 97.0932 105.537 97.2113 105.396 97.7809C105.048 99.1911 104.614 100.605 104.492 102.04C104.341 103.816 104.413 105.61 104.837 107.382C105.552 110.368 106.479 113.206 108.916 115.31C110.487 116.667 112.428 116.972 114.298 116.151C116.152 115.337 117.291 113.832 118.4 112.265C119.331 110.949 120.259 109.63 121.255 108.246C121.537 107.743 121.829 107.245 122.088 106.731ZM202.376 195.418C203.664 197.058 205.162 198.426 207.213 199.088C208.479 199.497 208.943 199.425 209.643 198.089C211.073 195.364 212.486 192.63 213.895 189.894C214.458 188.801 214.978 187.686 215.542 186.594C216.643 184.46 217.758 182.334 218.874 180.209C219.078 179.821 218.884 179.469 218.584 179.429C217.543 179.29 216.444 178.993 215.477 179.636C214.201 180.484 212.918 181.338 211.745 182.317C209.965 183.802 208.251 185.369 206.563 186.959C205.798 187.68 205.151 188.53 204.471 189.338C203.933 189.977 203.243 190.515 203.039 191.387C202.849 192.194 202.663 193.002 202.475 193.942C202.254 194.423 202.008 194.949 202.376 195.418ZM158.51 266.671C158.813 266.695 159.398 266.557 159.401 266.475C159.44 265.333 159.656 264.122 158.631 263.229C157.298 262.07 156.006 260.857 154.616 259.77C152.373 258.016 150.065 256.346 147.783 254.643C146.968 254.035 146.157 253.389 145.119 253.23C144.19 253.088 143.243 253.069 142.31 252.945C141.524 252.839 140.989 253.18 140.511 253.746C139.354 255.119 138.511 256.645 138.193 258.427C137.943 259.824 138.393 260.594 139.52 260.926C141.667 261.558 143.799 262.242 145.942 262.888C147.478 263.352 149.028 263.769 150.56 264.242C152.795 264.932 155.02 265.654 157.383 266.362C157.758 266.471 158.128 266.641 158.51 266.671ZM113.419 180.596C111.936 180.009 110.462 179.4 108.976 178.822C108.537 178.651 108.163 178.601 108.018 179.277C107.861 180.011 107.526 180.707 107.284 181.424C106.746 183.016 106.206 184.607 105.697 186.208C105.603 186.504 105.46 186.919 106.045 186.975C106.806 187.049 107.563 187.176 108.325 187.231C109.814 187.34 111.305 187.446 112.796 187.495C115.012 187.568 117.229 187.595 119.446 187.634C120.154 187.646 120.863 187.633 121.571 187.637C121.743 187.638 121.926 187.626 122.086 187.676C124.005 188.276 125.918 188.897 127.839 189.491C129.771 190.089 131.707 190.675 133.772 190.56C134.488 190.52 134.62 190.386 134.356 189.726C134.213 189.366 134.013 189 133.748 188.722C132.455 187.367 130.876 186.421 129.187 185.643C127.841 185.023 126.526 184.332 125.012 184.176C124.304 184.103 123.59 184.002 122.902 183.823C121.809 183.54 120.725 183.213 119.655 182.849C118.319 182.394 117.002 181.883 115.544 181.396C114.836 181.13 114.123 180.875 113.419 180.596ZM96.7439 121.99C96.1225 121.026 95.4684 120.084 94.8262 119.135C94.7369 119.003 94.6392 118.876 94.5454 118.747C94.4834 118.964 94.3962 119.178 94.364 119.4C94.2579 120.133 94.1981 120.874 94.0722 121.603C93.8229 123.046 93.6874 124.465 94.6231 125.748C94.6824 125.829 94.7289 125.927 94.7556 126.024C95.0997 127.275 95.4377 128.527 95.7808 129.778C95.8676 130.095 95.9583 130.411 96.0624 130.722C96.5099 132.062 97.0522 133.378 97.3895 134.745C97.736 136.148 98.0013 137.559 98.7208 138.842C98.9275 139.21 98.9945 139.655 99.147 140.057C99.1925 140.176 99.3426 140.369 99.3903 140.355C99.5423 140.307 99.7427 140.206 99.7937 140.076C100.388 138.55 100.674 136.884 101.801 135.602C102.758 134.514 102.56 133.403 101.972 132.241C101.743 131.787 101.601 131.29 101.396 130.822C100.953 129.812 100.529 128.79 100.034 127.806C99.6007 126.946 99.0762 126.132 98.5996 125.293C98.2644 124.703 97.9418 124.106 97.5471 123.446C97.2813 122.96 97.0439 122.454 96.7439 121.99ZM132.62 182.919C130.68 181.665 128.713 180.448 126.834 179.109C125.26 177.988 123.802 176.707 122.272 175.522C121.859 175.202 121.385 175.096 120.964 175.578C120.28 176.359 119.584 177.128 118.901 177.91C118.393 178.493 117.905 179.092 117.396 179.674C116.998 180.128 117.04 180.372 117.622 180.546C119.494 181.106 121.379 181.621 123.245 182.198C125.792 182.987 128.336 183.788 130.86 184.646C131.668 184.921 132.38 185.476 133.186 185.754C134.005 186.037 134.881 186.185 135.744 186.305C136.741 186.444 137.751 186.499 138.757 186.562C138.917 186.572 139.087 186.428 139.253 186.356C139.154 186.22 139.08 186.054 138.955 185.952C137.36 184.646 135.455 183.973 133.475 183.254C133.188 183.145 132.872 183.082 132.62 182.919ZM107.364 147.95C107.61 148.886 108.196 149.341 109.098 149.425C109.877 149.499 110.106 149.071 110.296 148.502C110.568 147.687 110.838 146.87 111.093 146.05C111.66 144.227 111.579 142.39 111.239 140.537C111.129 139.933 111.155 139.303 111.127 138.685C111.123 138.595 111.169 138.503 111.191 138.412C111.1 138.439 111.006 138.457 110.919 138.493C110.372 138.719 109.845 139.033 109.277 139.16C108.212 139.4 107.126 139.558 106.042 139.696C105.623 139.75 105.375 139.794 105.508 140.306C105.634 140.79 105.684 141.292 105.784 141.783C105.999 142.841 106.225 143.897 106.446 145.086C106.756 146.04 107.108 146.982 107.364 147.95ZM118.714 137.964C118.817 138.051 118.932 138.125 119.042 138.205C119.041 138.057 119.082 137.893 119.033 137.763C118.745 136.998 118.477 136.222 118.126 135.486C117.377 133.915 116.688 132.3 115.774 130.828C114.875 129.381 113.665 128.13 112.71 126.713C112.026 125.698 111.542 124.549 110.958 123.465C110.868 123.298 110.719 123.163 110.598 123.014C110.542 123.189 110.435 123.367 110.439 123.541C110.467 124.673 110.482 125.807 110.577 126.934C110.641 127.703 110.771 128.477 110.978 129.22C111.207 130.044 111.623 130.818 111.837 131.645C112.088 132.612 112.548 133.225 113.485 133.741C115.039 134.599 116.643 135.49 117.736 137.121C118.062 137.402 118.386 137.685 118.714 137.964ZM111.796 100.45C111.286 101.193 112.232 103.795 112.746 103.988C116.345 105.343 117.371 103.025 117.419 102.388C117.512 101.125 117.668 99.844 116.474 98.8196C113.324 98.193 112.62 99.2501 111.796 100.45ZM125.578 101.502C125.095 100.297 124.363 99.5107 123.088 99.7858C122.437 99.9262 121.864 100.442 121.266 100.804C119.98 101.581 119.812 102.007 120.262 103.385C120.711 104.764 121.76 105.555 123.095 105.823C124.199 106.045 124.989 105.36 125.572 104.329C125.719 103.388 125.961 102.456 125.578 101.502ZM120.812 99.9438C121.331 99.5747 121.893 99.0283 122.453 99.0081C123.422 98.9732 123.264 98.3817 123.16 97.9158C122.868 96.6143 122.486 95.332 122.114 94.0497C121.859 93.1719 121.644 93.1215 121.025 93.7398C119.966 94.7989 118.893 95.8375 117.563 96.5686C117.146 96.7973 117.089 97.3241 117.387 97.7391C117.498 97.8936 117.648 98.0261 117.731 98.193C118.14 99.0156 118.511 99.8581 118.948 100.665C119.044 100.844 118.971 101.475 119.595 101.01C119.998 100.651 120.375 100.255 120.812 99.9438ZM198.973 195.18C199.876 195.012 200.844 194.78 200.984 193.578C201.007 193.377 201.1 193.184 201.145 192.983C201.43 191.741 201.108 191.343 199.863 191.209C198.692 191.083 197.529 190.874 196.365 190.686C195.743 190.585 195.628 190.702 195.559 191.336C195.464 192.214 195.327 193.089 195.163 193.957C195.019 194.718 195.232 195.319 195.9 195.468C196.926 195.38 197.966 195.367 198.973 195.18ZM144.735 251.738C144.861 251.733 145.076 251.482 145.081 251.339C145.112 250.389 145.089 249.438 145.1 248.488C145.106 247.954 144.696 247.936 144.403 248.03C143.763 248.233 143.155 248.537 142.538 248.808C142.092 249.005 141.591 249.164 141.645 249.807C141.683 250.26 141.683 250.725 141.787 251.164C141.961 251.893 142.59 251.547 143.104 251.692C143.648 251.714 144.193 251.763 144.735 251.738ZM109.358 174.511C109.32 174.403 109.163 174.337 109.06 174.251C108.986 174.358 108.856 174.459 108.846 174.572C108.783 175.255 108.73 175.939 108.709 176.624C108.689 177.293 109.163 177.727 109.843 177.665C109.959 177.655 110.163 177.452 110.148 177.37C110.048 176.826 109.899 176.291 109.7 175.687C109.589 175.294 109.494 174.895 109.358 174.511ZM146.779 187.052C146.853 186.907 147.008 186.5 146.558 186.584C145.87 186.713 145.195 186.908 144.519 187.092C144.396 187.126 144.295 187.242 144.183 187.32C144.312 187.381 144.44 187.49 144.571 187.494C145.122 187.514 145.674 187.503 146.292 187.436C146.461 187.312 146.695 187.22 146.779 187.052ZM95.4884 117.406C95.3825 117.467 95.2766 117.529 95.1708 117.591C95.254 117.683 95.3223 117.812 95.4262 117.856C95.4884 117.882 95.6246 117.793 95.6963 117.723C96.1051 117.327 96.5065 116.923 96.9054 116.517C96.9853 116.436 97.0434 116.333 97.1115 116.24C96.9772 116.267 96.8085 116.25 96.7145 116.326C96.3158 116.649 95.9394 116.999 95.4884 117.406Z" fill="#00160A"/>
<path fill-rule="evenodd" clip-rule="evenodd" d="M109.721 109.672C109.098 109.336 108.483 109.06 108.354 108.31C108.102 106.854 108.627 105.138 110.525 105.237C112.237 105.327 113.323 106.749 112.718 108.354C112.271 109.538 111.188 110.125 109.721 109.672Z" fill="#FFB61D"/>
<path fill-rule="evenodd" clip-rule="evenodd" d="M118.162 104.239C118.196 104.015 118.23 103.859 118.264 103.703C118.318 103.839 118.387 103.971 118.423 104.112C118.69 105.157 119.536 107.759 118.529 108.956C118.445 109.055 118.02 109.071 117.755 109.054C117.234 109.021 116.628 108.254 116.724 107.759C116.739 107.684 117.995 108.903 118.264 108.244C118.714 107.143 118.162 104.617 118.162 104.239Z" fill="#00160A"/>
<path fill-rule="evenodd" clip-rule="evenodd" d="M111.076 111.862C111.024 111.835 110.951 111.842 110.889 111.845C110.734 111.851 110.522 111.574 110.612 111.457C110.748 111.281 110.902 111.102 111.086 110.986C111.195 110.917 111.377 111.141 111.363 111.241C111.353 111.315 111.423 111.431 111.491 111.481C112.531 112.245 113.686 112.74 114.949 112.978C115.032 112.994 115.105 113.068 115.183 113.115C115.105 113.169 115.028 113.274 114.951 113.269C113.572 113.189 111.979 112.32 111.076 111.862Z" fill="#00160A"/>
<path fill-rule="evenodd" clip-rule="evenodd" d="M77.4985 171.686L76.1895 177.277C76.0883 177.71 76.4951 178.088 76.919 177.956L81.4634 176.541C81.8457 176.422 81.9918 175.958 81.7465 175.642L78.5112 171.466C78.2153 171.084 77.6087 171.216 77.4985 171.686ZM78.0574 172.583L80.9101 175.993L76.7484 177.408L78.0574 172.583Z" fill="#FFB61D"/>
<path fill-rule="evenodd" clip-rule="evenodd" d="M81.5602 139.43C81.0817 139.387 80.7653 139.916 81.0293 140.317L84.3585 145.378C84.583 145.72 85.0818 145.724 85.3121 145.387L88.3764 140.899C88.6235 140.537 88.3902 140.043 87.9536 140.004L81.5602 139.43ZM82.0106 140.004L87.7346 141.116L84.3585 144.65L82.0106 140.004Z" fill="#FFB61D"/>
<path fill-rule="evenodd" clip-rule="evenodd" d="M102.659 178.131H97.9631C97.5738 178.131 97.2975 178.511 97.4167 178.881L98.9941 183.784C99.143 184.247 99.7639 184.326 100.025 183.916L103.143 179.013C103.386 178.631 103.112 178.131 102.659 178.131ZM102.276 179.088L99.9231 183.608L98.3458 178.705L102.276 179.088Z" fill="#FFB61D"/>
<path fill-rule="evenodd" clip-rule="evenodd" d="M87.272 204.698L87.0574 208.948C87.0349 209.393 87.5069 209.693 87.9006 209.484L93.3602 206.575C93.8227 206.329 93.7403 205.642 93.2326 205.512L87.9876 204.171C87.636 204.081 87.2903 204.335 87.272 204.698ZM87.687 205.103L92.7044 205.8L87.9006 208.64L87.687 205.103Z" fill="#FFB61D"/>
<path fill-rule="evenodd" clip-rule="evenodd" d="M80.0335 152.495L75.8242 155.413C75.468 155.66 75.5034 156.197 75.889 156.395L80.815 158.924C81.2268 159.136 81.7066 158.798 81.6462 158.339L80.9296 152.892C80.8736 152.466 80.3866 152.25 80.0335 152.495ZM80.2025 153.509L81.0771 158.414L76.1512 155.885L80.2025 153.509Z" fill="#FFB61D"/>
<path fill-rule="evenodd" clip-rule="evenodd" d="M99.3471 164.993L96.7206 168.914C96.4944 169.252 96.6811 169.711 97.0787 169.795L100.15 170.445C100.529 170.525 100.877 170.214 100.84 169.827L100.395 165.256C100.343 164.72 99.6471 164.545 99.3471 164.993ZM100.062 165.778V169.978L97.4217 168.914L100.062 165.778Z" fill="#FFB61D"/>
<path fill-rule="evenodd" clip-rule="evenodd" d="M99.8453 146.518C100.61 146.019 101.28 146.137 100.734 147.235C100.734 147.235 96.7505 157.336 95.5602 157.455C94.4314 157.569 93.8865 156.109 92.3103 151.935L92.2433 151.757C92.2374 151.742 92.2322 151.726 92.2277 151.71L92.2193 151.677L92.209 151.658L92.1872 151.607L91.9987 151.098C91.776 150.49 91.2157 149.487 90.9193 149.138C90.6036 148.767 91.3081 148.537 91.8285 148.537C92.7998 148.537 93.9883 148.809 95.8575 148.269C98.0466 147.637 98.7978 147.201 99.8453 146.518ZM98.151 151.707L98.0984 151.741C97.5427 152.083 96.9284 152.346 96.2572 152.53C95.4543 152.749 94.2894 152.776 93.5358 152.612L93.4098 152.582L93.4563 152.698C93.8815 153.758 94.2597 154.984 94.5892 155.607L94.7042 155.82C94.9109 156.191 95.0923 156.461 95.239 156.623L95.2848 156.671L95.3419 156.602C95.5875 156.288 96.4621 155.106 97.0696 153.925L97.1332 153.801C97.3933 153.291 97.677 152.712 97.9842 152.063L98.151 151.707ZM99.7907 147.685L99.6983 147.737C98.8341 148.219 97.4045 149.017 96.1758 149.372C94.7049 149.797 93.4579 149.948 92.4322 149.812L92.3693 149.803L92.4053 149.904C92.5032 150.179 92.9187 151.477 93.0658 151.677C93.661 152.227 94.3911 152.279 95.2848 152.063L95.4129 152.029C98.6133 151.411 99.7907 147.685 99.7907 147.685Z" fill="#FFB61D"/>
<path fill-rule="evenodd" clip-rule="evenodd" d="M212.181 182.997C212.309 182.903 212.488 182.93 212.582 183.058C213.245 183.956 214.367 184.001 215.858 183.173C215.997 183.096 216.171 183.146 216.248 183.284C216.325 183.423 216.275 183.597 216.137 183.674C214.421 184.627 212.985 184.57 212.12 183.398C212.026 183.271 212.054 183.091 212.181 182.997Z" fill="#E7EAEE"/>
<path fill-rule="evenodd" clip-rule="evenodd" d="M210.012 185.296C210.129 185.19 210.311 185.198 210.417 185.316C211.422 186.421 212.758 186.484 213.844 185.904C213.984 185.829 214.158 185.882 214.232 186.022C214.307 186.162 214.254 186.336 214.114 186.41C212.817 187.103 211.197 187.027 209.993 185.702C209.886 185.584 209.895 185.403 210.012 185.296Z" fill="#E7EAEE"/>
<path fill-rule="evenodd" clip-rule="evenodd" d="M207.662 187.574C207.777 187.465 207.959 187.47 208.067 187.586C209.036 188.615 211.005 189.118 212.352 188.404C212.492 188.33 212.666 188.383 212.74 188.523C212.814 188.663 212.761 188.837 212.621 188.911C211.026 189.756 208.783 189.183 207.649 187.979C207.541 187.864 207.546 187.682 207.662 187.574Z" fill="#E7EAEE"/>
<path fill-rule="evenodd" clip-rule="evenodd" d="M209.486 196.574C211.501 195.599 209.418 191.987 207.468 193.449C206.218 194.387 207.589 197.492 209.486 196.574Z" fill="#E7EAEE"/>
</svg>
